<svg width="25" height="25" viewBox="0 0 25 25" fill="none" opacity="0.6" xmlns="http://www.w3.org/2000/svg">
<path d="M12.5 5.66406C8.73075 5.66406 5.66431 8.7305 5.66431 12.4998C5.66431 16.2691 8.73075 19.3355 12.5 19.3355C16.2693 19.3355 19.3358 16.2691 19.3358 12.4998C19.3358 8.7305 16.2693 5.66406 12.5 5.66406ZM12.5 17.8699C9.53908 17.8699 7.12991 15.4609 7.12991 12.4998C7.12991 9.53883 9.53908 7.12967 12.5 7.12967C15.4612 7.12967 17.8702 9.53883 17.8702 12.4998C17.8702 15.4609 15.4612 17.8699 12.5 17.8699Z" fill="white"/>
<path d="M19.4991 3.23682C18.3852 3.23682 17.4792 4.143 17.4792 5.25669C17.4792 6.37058 18.3852 7.27676 19.4991 7.27676C20.613 7.27676 21.5192 6.37058 21.5192 5.25669C21.5192 4.14281 20.613 3.23682 19.4991 3.23682ZM19.4991 5.81097C19.1936 5.81097 18.9449 5.56225 18.9449 5.25669C18.9449 4.95095 19.1936 4.70242 19.4991 4.70242C19.8049 4.70242 20.0536 4.95095 20.0536 5.25669C20.0536 5.56225 19.8049 5.81097 19.4991 5.81097Z" fill="white"/>
<path d="M18.2327 0H6.76726C3.03573 0 0 3.03573 0 6.76726V18.2329C0 21.9642 3.03573 25 6.76726 25H18.2329C21.9642 25 25 21.9642 25 18.2329V6.76726C25 3.03573 21.9642 0 18.2327 0V0ZM23.5343 18.2329C23.5343 21.1561 21.1561 23.5343 18.2327 23.5343H6.76726C3.84387 23.5343 1.4656 21.1561 1.4656 18.2329V6.76726C1.4656 3.84387 3.84387 1.4656 6.76726 1.4656H18.2329C21.1561 1.4656 23.5343 3.84387 23.5343 6.76726V18.2329Z" fill="white"/>
</svg>
