<svg width="25" height="25" viewBox="0 0 25 25" fill="none" xmlns="http://www.w3.org/2000/svg">
<g opacity="0.6" clip-path="url(#clip0_74_179)">
<path d="M24.7937 3.29229C24.5488 2.99339 24.1427 2.88255 23.7816 3.01556L0.849205 11.319C0.39106 11.4859 0.0694812 11.8904 0.00978115 12.3749C-0.0493467 12.8571 0.16275 13.3249 0.560623 13.5942L3.83859 15.8362C4.15617 16.0535 4.56453 16.0768 4.90461 15.897L12.0152 12.14L6.47341 16.2861C6.21324 16.4809 6.05779 16.7914 6.05779 17.1167V20.9572C6.05779 21.3533 6.27466 21.7163 6.6237 21.9047C6.97332 22.0931 7.39561 22.0744 7.72768 21.855L10.2181 20.1998L12.6671 21.873C12.8817 22.0203 13.1373 22.0979 13.3952 22.0979C13.4823 22.0979 13.5699 22.0889 13.6561 22.071C14 21.9991 14.3042 21.7862 14.4909 21.4869L24.8664 4.34491C25.0683 4.01487 25.0393 3.59252 24.7937 3.29229ZM13.3404 20.5557L10.8042 18.8229C10.6278 18.7021 10.4245 18.6417 10.2213 18.6417C10.0226 18.6417 9.82366 18.6996 9.64952 18.8154L7.5234 20.2285V17.3334L17.3091 10.0122C17.746 9.68524 17.8561 9.09013 17.5648 8.62803C17.2734 8.16593 16.6899 8.00979 16.2076 8.26473L4.45066 14.4767L1.67814 12.5803L22.7957 4.9341L13.3404 20.5557Z" fill="white"/>
</g>
<defs>
<clipPath id="clip0_74_179">
<rect width="25" height="25" fill="white"/>
</clipPath>
</defs>
</svg>
