<svg class="socials__svg" width="25" height="25" viewBox="0 0 25 25" fill="none" xmlns="http://www.w3.org/2000/svg">
<g opacity="0.6" clip-path="url(#clip0_74_176)">
<path d="M16.348 11.3764L10.8249 8.3544C10.5074 8.18064 10.132 8.18713 9.82073 8.37157C9.50926 8.5562 9.32349 8.88236 9.32349 9.24437V15.2365C9.32349 15.5968 9.50812 15.9224 9.81749 16.1072C9.97904 16.2037 10.1581 16.2522 10.3376 16.2522C10.502 16.2522 10.6668 16.2115 10.8185 16.1299L16.3417 13.16C16.6696 12.9835 16.8743 12.6427 16.8758 12.2702C16.8771 11.8977 16.6749 11.5553 16.348 11.3764ZM10.7885 14.4827V10.0043L14.9164 12.2629L10.7885 14.4827Z" fill="white"/>
<path d="M24.816 7.49645L24.8149 7.48501C24.7937 7.28378 24.583 5.49393 23.7128 4.58355C22.7071 3.51276 21.5669 3.38268 21.0185 3.32031C20.9731 3.31516 20.9315 3.31039 20.8944 3.30544L20.8507 3.30086C17.5456 3.06053 12.5543 3.02773 12.5043 3.02753L12.5 3.02734L12.4956 3.02753C12.4456 3.02773 7.45427 3.06053 4.11948 3.30086L4.07542 3.30544C4.03994 3.3102 4.00084 3.31459 3.9583 3.31955C3.41624 3.38211 2.28824 3.51238 1.27964 4.62189C0.450895 5.52254 0.211333 7.27406 0.186729 7.47089L0.183868 7.49645C0.176429 7.58018 0 9.57355 0 11.5747V13.4455C0 15.4467 0.176429 17.44 0.183868 17.524L0.185203 17.5365C0.206374 17.7345 0.416945 19.4916 1.28307 20.4023C2.22873 21.4373 3.42444 21.5742 4.0676 21.6478C4.16926 21.6595 4.2568 21.6694 4.3165 21.6799L4.3743 21.6879C6.28259 21.8695 12.2657 21.9589 12.5194 21.9625L12.527 21.9627L12.5347 21.9625C12.5846 21.9624 17.5758 21.9296 20.8808 21.6892L20.9245 21.6846C20.9663 21.6791 21.0132 21.6742 21.0647 21.6688C21.6037 21.6116 22.7256 21.4928 23.7203 20.3983C24.549 19.4975 24.7888 17.746 24.8132 17.5493L24.816 17.5238C24.8235 17.4398 25.0001 15.4467 25.0001 13.4455V11.5747C24.9999 9.57355 24.8235 7.58038 24.816 7.49645ZM23.5349 13.4455C23.5349 15.2977 23.3731 17.2052 23.3579 17.3803C23.2957 17.8627 23.043 18.9709 22.6392 19.4098C22.0166 20.0947 21.3771 20.1626 20.9102 20.212C20.8537 20.2179 20.8015 20.2236 20.7542 20.2295C17.5575 20.4607 12.7546 20.4962 12.5333 20.4975C12.2852 20.4939 6.38959 20.4037 4.53947 20.2318C4.44468 20.2164 4.34225 20.2045 4.2343 20.1923C3.6867 20.1296 2.93711 20.0438 2.36072 19.4098L2.34717 19.3953C1.95045 18.9819 1.70497 17.9457 1.6426 17.3861C1.63097 17.2537 1.46503 15.3236 1.46503 13.4455V11.5747C1.46503 9.72462 1.62639 7.81918 1.64203 7.64046C1.71623 7.07226 1.97372 6.03123 2.36072 5.61047C3.00235 4.90475 3.67888 4.82655 4.12634 4.77486C4.16907 4.7699 4.20893 4.76532 4.24574 4.76055C7.48898 4.52824 12.3264 4.49371 12.5 4.49238C12.6735 4.49352 17.5092 4.52824 20.7236 4.76055C20.7631 4.76551 20.8062 4.77047 20.8526 4.77581C21.3128 4.82826 22.0084 4.90761 22.6468 5.58853L22.6527 5.59483C23.0495 6.00815 23.2949 7.06253 23.3573 7.6334C23.3684 7.75833 23.5349 9.69257 23.5349 11.5747V13.4455Z" fill="white"/>
</g>
<defs>
<clipPath id="clip0_74_176">
<rect width="25" height="25" fill="white"/>
</clipPath>
</defs>
</svg>
